<?xml version="1.0" encoding="UTF-8" standalone="no"?>
<!-- Generator: Adobe Illustrator 25.2.1, SVG Export Plug-In . SVG Version: 6.00 Build 0)  -->

<svg
   version="1.1"
   id="Layer_1"
   x="0px"
   y="0px"
   viewBox="0 0 539.99998 200"
   xml:space="preserve"
   sodipodi:docname="klor.svg"
   width="540"
   height="200"
   inkscape:version="1.3 (0e150ed6c4, 2023-07-21)"
   xmlns:inkscape="http://www.inkscape.org/namespaces/inkscape"
   xmlns:sodipodi="http://sodipodi.sourceforge.net/DTD/sodipodi-0.dtd"
   xmlns="http://www.w3.org/2000/svg"
   xmlns:svg="http://www.w3.org/2000/svg"><defs
   id="defs6" /><sodipodi:namedview
   id="namedview6"
   pagecolor="#ffffff"
   bordercolor="#000000"
   borderopacity="0.25"
   inkscape:showpageshadow="2"
   inkscape:pageopacity="0.0"
   inkscape:pagecheckerboard="0"
   inkscape:deskcolor="#d1d1d1"
   inkscape:zoom="0.99181602"
   inkscape:cx="260.12889"
   inkscape:cy="52.933204"
   inkscape:window-width="1916"
   inkscape:window-height="1039"
   inkscape:window-x="0"
   inkscape:window-y="20"
   inkscape:window-maximized="1"
   inkscape:current-layer="Layer_1" />&#10;<style
   type="text/css"
   id="style1">&#10;	.st0{fill:#E6E7E8;}&#10;	.st1{fill:#BE1E2D;}&#10;	.st2{fill:#F26222;}&#10;	.st3{fill:#FBB040;}&#10;	.st4{fill:#464646;}&#10;</style>&#10;&#10;&#10;&#10;&#10;&#10;&#10;&#10;<rect
   style="fill:#ffffff"
   id="rect1"
   width="540"
   height="200"
   x="0"
   y="0" /><g
   id="g1"
   transform="translate(9.795,47.09)"><polygon
     class="st0"
     points="104,473.39 104,367.57 37.18,444.27 "
     id="polygon1"
     transform="translate(-37.18,-367.57)" /><polygon
     class="st1"
     points="152.51,415.55 108.54,473.39 169.82,434.43 "
     id="polygon2"
     transform="translate(-37.18,-367.57)" /><polygon
     class="st2"
     points="131.29,392.4 108.54,473.39 152.51,415.55 "
     id="polygon3"
     transform="translate(-37.18,-367.57)" /><polygon
     class="st3"
     points="108.54,367.57 108.54,473.39 131.29,392.4 "
     id="polygon4"
     transform="translate(-37.18,-367.57)" /><path
     class="st4"
     d="m 168.19,4.49 h 25.75 V 38.21 L 220.69,4.49 h 30.36 l -33.47,42.18 35.83,44.79 H 223.05 L 193.94,55.13 v 36.33 h -25.75 z"
     id="path4" /><path
     class="st4"
     d="m 365.93,87.6 c -7.17,-3.81 -12.81,-9.15 -16.92,-15.99 -4.11,-6.84 -6.16,-14.7 -6.16,-23.58 0,-8.88 2.05,-16.75 6.16,-23.64 4.11,-6.88 9.75,-12.23 16.92,-16.05 7.17,-3.81 15.16,-5.72 23.95,-5.72 8.79,0 16.73,1.91 23.83,5.72 7.09,3.82 12.69,9.17 16.8,16.05 4.11,6.89 6.16,14.76 6.16,23.64 0,8.88 -2.05,16.73 -6.16,23.58 -4.11,6.85 -9.7,12.17 -16.8,15.99 -7.09,3.82 -15.04,5.72 -23.83,5.72 -8.79,0.01 -16.77,-1.9 -23.95,-5.72 z m 34.34,-20.96 c 3.11,-1.7 5.58,-4.15 7.4,-7.34 1.82,-3.19 2.74,-6.95 2.74,-11.26 0,-6.39 -1.95,-11.49 -5.85,-15.3 -3.9,-3.81 -8.79,-5.72 -14.68,-5.72 -5.97,0 -10.93,1.91 -14.87,5.72 -3.94,3.82 -5.91,8.92 -5.91,15.3 0,4.31 0.91,8.07 2.74,11.26 1.82,3.19 4.31,5.64 7.46,7.34 3.15,1.7 6.68,2.55 10.58,2.55 3.82,0 7.28,-0.85 10.39,-2.55 z"
     id="path5" /><path
     class="st4"
     d="m 446.13,4.49 h 40.44 c 10.45,0 18.7,2.63 24.76,7.9 6.05,5.27 9.08,12.88 9.08,22.83 0,6.47 -1.35,11.99 -4.04,16.55 -2.7,4.56 -6.53,8.05 -11.51,10.45 l 14.56,29.24 h -26.38 l -12.69,-25.5 h -8.46 v 25.5 H 446.14 V 4.49 Z m 35.33,41.06 c 3.98,0 7.07,-0.77 9.27,-2.3 2.2,-1.53 3.3,-4.21 3.3,-8.03 0,-3.81 -1.1,-6.49 -3.3,-8.02 -2.2,-1.53 -5.29,-2.3 -9.27,-2.3 h -9.58 v 20.65 z"
     id="path6" /><polygon
     class="st2"
     points="321.68,458.55 341.56,427.84 358.09,458.55 383.13,458.55 336.54,371.97 311.5,371.97 329.63,405.67 295.41,458.55 "
     id="polygon6"
     transform="translate(-37.18,-367.57)" /></g>&#10;</svg>
