<?xml version="1.0" encoding="UTF-8" standalone="no"?>
<!DOCTYPE svg PUBLIC "-//W3C//DTD SVG 1.1//EN"
 "http://www.w3.org/Graphics/SVG/1.1/DTD/svg11.dtd">
<!-- Generated by graphviz version 9.0.0 (20230911.1827)
 -->
<!-- Pages: 1 -->
<svg width="120pt" height="126pt"
 viewBox="0.00 0.00 120.43 126.03" xmlns="http://www.w3.org/2000/svg" xmlns:xlink="http://www.w3.org/1999/xlink">
<g id="graph0" class="graph" transform="scale(1 1) rotate(0) translate(4 122.03)">
<!-- A -->
<g id="node1" class="node">
<title>A</title>
<ellipse fill="red" stroke="red" cx="69.06" cy="-1.8" rx="1.8" ry="1.8"/>
</g>
<!-- B -->
<g id="node2" class="node">
<title>B</title>
<ellipse fill="red" stroke="red" cx="110.63" cy="-59.02" rx="1.8" ry="1.8"/>
</g>
<!-- A&#45;&#45;B -->
<g id="edge1" class="edge">
<title>A&#45;&#45;B</title>
<path fill="none" stroke="black" d="M70.09,-3.21C75.79,-11.06 103.5,-49.19 109.49,-57.44"/>
</g>
<!-- C -->
<g id="node3" class="node">
<title>C</title>
<ellipse fill="red" stroke="red" cx="1.8" cy="-94.38" rx="1.8" ry="1.8"/>
</g>
<!-- A&#45;&#45;C -->
<g id="edge6" class="edge">
<title>A&#45;&#45;C</title>
<path fill="none" stroke="black" d="M67.89,-3.41C59.73,-14.64 11.27,-81.35 3,-92.73"/>
</g>
<!-- B&#45;&#45;C -->
<g id="edge2" class="edge">
<title>B&#45;&#45;C</title>
<path fill="none" stroke="black" d="M108.74,-59.63C95.53,-63.92 17.12,-89.4 3.74,-93.75"/>
</g>
<!-- D -->
<g id="node4" class="node">
<title>D</title>
<ellipse fill="red" stroke="red" cx="69.06" cy="-116.23" rx="1.8" ry="1.8"/>
</g>
<!-- B&#45;&#45;D -->
<g id="edge9" class="edge">
<title>B&#45;&#45;D</title>
<path fill="none" stroke="black" d="M109.6,-60.43C103.9,-68.28 76.2,-106.41 70.21,-114.66"/>
</g>
<!-- C&#45;&#45;D -->
<g id="edge3" class="edge">
<title>C&#45;&#45;D</title>
<path fill="none" stroke="black" d="M3.74,-95.01C13.56,-98.2 57.7,-112.54 67.24,-115.64"/>
</g>
<!-- E -->
<g id="node5" class="node">
<title>E</title>
<ellipse fill="red" stroke="red" cx="1.8" cy="-23.65" rx="1.8" ry="1.8"/>
</g>
<!-- C&#45;&#45;E -->
<g id="edge7" class="edge">
<title>C&#45;&#45;E</title>
<path fill="none" stroke="black" d="M1.8,-92.34C1.8,-82.01 1.8,-35.6 1.8,-25.57"/>
</g>
<!-- D&#45;&#45;A -->
<g id="edge10" class="edge">
<title>D&#45;&#45;A</title>
<path fill="none" stroke="black" d="M69.06,-114.25C69.06,-100.36 69.06,-17.91 69.06,-3.84"/>
</g>
<!-- D&#45;&#45;E -->
<g id="edge4" class="edge">
<title>D&#45;&#45;E</title>
<path fill="none" stroke="black" d="M67.89,-114.63C59.73,-103.39 11.27,-36.69 3,-25.31"/>
</g>
<!-- E&#45;&#45;A -->
<g id="edge5" class="edge">
<title>E&#45;&#45;A</title>
<path fill="none" stroke="black" d="M3.74,-23.02C13.56,-19.83 57.7,-5.49 67.24,-2.39"/>
</g>
<!-- E&#45;&#45;B -->
<g id="edge8" class="edge">
<title>E&#45;&#45;B</title>
<path fill="none" stroke="black" d="M3.69,-24.27C16.9,-28.56 95.31,-54.04 108.69,-58.39"/>
</g>
</g>
</svg>
