<?xml version="1.0" encoding="UTF-8" standalone="no"?>
<!DOCTYPE svg PUBLIC "-//W3C//DTD SVG 1.1//EN"
 "http://www.w3.org/Graphics/SVG/1.1/DTD/svg11.dtd">
<!-- Generated by graphviz version 9.0.0 (20230911.1827)
 -->
<!-- Pages: 1 -->
<svg width="108pt" height="108pt"
 viewBox="0.00 0.00 107.86 107.86" xmlns="http://www.w3.org/2000/svg" xmlns:xlink="http://www.w3.org/1999/xlink">
<g id="graph0" class="graph" transform="scale(1 1) rotate(0) translate(4 103.86)">
<!-- A -->
<g id="node1" class="node">
<title>A</title>
<ellipse fill="red" stroke="red" cx="49.93" cy="-1.8" rx="1.8" ry="1.8"/>
</g>
<!-- B -->
<g id="node2" class="node">
<title>B</title>
<ellipse fill="red" stroke="red" cx="98.06" cy="-49.93" rx="1.8" ry="1.8"/>
</g>
<!-- A&#45;&#45;B -->
<g id="edge1" class="edge">
<title>A&#45;&#45;B</title>
<path fill="none" stroke="black" d="M51.53,-3.4C58.97,-10.84 90.06,-41.93 96.78,-48.65"/>
</g>
<!-- C -->
<g id="node3" class="node">
<title>C</title>
<ellipse fill="red" stroke="red" cx="49.93" cy="-98.06" rx="1.8" ry="1.8"/>
</g>
<!-- A&#45;&#45;C -->
<g id="edge5" class="edge">
<title>A&#45;&#45;C</title>
<path fill="none" stroke="black" d="M49.93,-3.81C49.93,-16.34 49.93,-83.56 49.93,-96.06"/>
</g>
<!-- B&#45;&#45;C -->
<g id="edge2" class="edge">
<title>B&#45;&#45;C</title>
<path fill="none" stroke="black" d="M96.46,-51.53C89.02,-58.97 57.92,-90.06 51.21,-96.78"/>
</g>
<!-- D -->
<g id="node4" class="node">
<title>D</title>
<ellipse fill="red" stroke="red" cx="1.8" cy="-49.93" rx="1.8" ry="1.8"/>
</g>
<!-- B&#45;&#45;D -->
<g id="edge6" class="edge">
<title>B&#45;&#45;D</title>
<path fill="none" stroke="black" d="M96.05,-49.93C83.52,-49.93 16.29,-49.93 3.8,-49.93"/>
</g>
<!-- C&#45;&#45;D -->
<g id="edge3" class="edge">
<title>C&#45;&#45;D</title>
<path fill="none" stroke="black" d="M48.33,-96.46C40.89,-89.02 9.79,-57.92 3.08,-51.21"/>
</g>
<!-- D&#45;&#45;A -->
<g id="edge4" class="edge">
<title>D&#45;&#45;A</title>
<path fill="none" stroke="black" d="M3.4,-48.33C10.84,-40.89 41.93,-9.79 48.65,-3.08"/>
</g>
</g>
</svg>
