<?xml version="1.0" encoding="UTF-8" standalone="no"?>
<!DOCTYPE svg PUBLIC "-//W3C//DTD SVG 1.1//EN"
 "http://www.w3.org/Graphics/SVG/1.1/DTD/svg11.dtd">
<!-- Generated by graphviz version 9.0.0 (20230911.1827)
 -->
<!-- Pages: 1 -->
<svg width="156pt" height="137pt"
 viewBox="0.00 0.00 155.99 136.64" xmlns="http://www.w3.org/2000/svg" xmlns:xlink="http://www.w3.org/1999/xlink">
<g id="graph0" class="graph" transform="scale(1 1) rotate(0) translate(4 132.64)">
<!-- A -->
<g id="node1" class="node">
<title>A</title>
<ellipse fill="red" stroke="red" cx="110.09" cy="-1.8" rx="1.8" ry="1.8"/>
</g>
<!-- D -->
<g id="node2" class="node">
<title>D</title>
<ellipse fill="red" stroke="red" cx="37.9" cy="-1.8" rx="1.8" ry="1.8"/>
</g>
<!-- A&#45;&#45;D -->
<g id="edge1" class="edge">
<title>A&#45;&#45;D</title>
<path fill="none" stroke="black" d="M108.01,-1.8C97.56,-1.8 50.92,-1.8 40.13,-1.8"/>
</g>
<!-- C -->
<g id="node3" class="node">
<title>C</title>
<ellipse fill="red" stroke="red" cx="1.8" cy="-64.32" rx="1.8" ry="1.8"/>
</g>
<!-- D&#45;&#45;C -->
<g id="edge2" class="edge">
<title>D&#45;&#45;C</title>
<path fill="none" stroke="black" d="M36.85,-3.6C31.58,-12.73 7.9,-53.76 2.78,-62.63"/>
</g>
<!-- F -->
<g id="node6" class="node">
<title>F</title>
<ellipse fill="red" stroke="red" cx="146.19" cy="-64.32" rx="1.8" ry="1.8"/>
</g>
<!-- D&#45;&#45;F -->
<g id="edge9" class="edge">
<title>D&#45;&#45;F</title>
<path fill="none" stroke="black" d="M39.78,-2.89C52.92,-10.47 130.94,-55.52 144.25,-63.21"/>
</g>
<!-- E -->
<g id="node4" class="node">
<title>E</title>
<ellipse fill="red" stroke="red" cx="37.9" cy="-126.84" rx="1.8" ry="1.8"/>
</g>
<!-- C&#45;&#45;E -->
<g id="edge3" class="edge">
<title>C&#45;&#45;E</title>
<path fill="none" stroke="black" d="M2.84,-66.12C8.11,-75.25 31.8,-116.28 36.92,-125.15"/>
</g>
<!-- E&#45;&#45;D -->
<g id="edge8" class="edge">
<title>E&#45;&#45;D</title>
<path fill="none" stroke="black" d="M37.9,-124.67C37.9,-109.49 37.9,-19.4 37.9,-4.03"/>
</g>
<!-- B -->
<g id="node5" class="node">
<title>B</title>
<ellipse fill="red" stroke="red" cx="110.09" cy="-126.84" rx="1.8" ry="1.8"/>
</g>
<!-- E&#45;&#45;B -->
<g id="edge4" class="edge">
<title>E&#45;&#45;B</title>
<path fill="none" stroke="black" d="M39.98,-126.84C50.43,-126.84 97.07,-126.84 107.86,-126.84"/>
</g>
<!-- B&#45;&#45;F -->
<g id="edge5" class="edge">
<title>B&#45;&#45;F</title>
<path fill="none" stroke="black" d="M111.13,-125.04C116.4,-115.91 140.09,-74.88 145.21,-66.01"/>
</g>
<!-- F&#45;&#45;A -->
<g id="edge6" class="edge">
<title>F&#45;&#45;A</title>
<path fill="none" stroke="black" d="M145.14,-62.52C139.87,-53.39 116.18,-12.36 111.07,-3.49"/>
</g>
<!-- F&#45;&#45;E -->
<g id="edge7" class="edge">
<title>F&#45;&#45;E</title>
<path fill="none" stroke="black" d="M144.31,-65.41C131.16,-72.99 53.14,-118.04 39.83,-125.73"/>
</g>
</g>
</svg>
